<?xml version="1.0" encoding="UTF-8" standalone="no"?>
<!-- Created with Inkscape (http://www.inkscape.org/) -->

<svg
   width="250"
   height="250"
   viewBox="0 0 66.145832 66.145833"
   version="1.1"
   id="svg1"
   inkscape:version="1.3.2 (091e20ef0f, 2023-11-25)"
   sodipodi:docname="trash.svg"
   xmlns:inkscape="http://www.inkscape.org/namespaces/inkscape"
   xmlns:sodipodi="http://sodipodi.sourceforge.net/DTD/sodipodi-0.dtd"
   xmlns="http://www.w3.org/2000/svg"
   xmlns:svg="http://www.w3.org/2000/svg">
  <sodipodi:namedview
     id="namedview1"
     pagecolor="#505050"
     bordercolor="#ffffff"
     borderopacity="1"
     inkscape:showpageshadow="0"
     inkscape:pageopacity="0"
     inkscape:pagecheckerboard="1"
     inkscape:deskcolor="#505050"
     inkscape:document-units="px"
     showborder="true"
     inkscape:zoom="2.8685466"
     inkscape:cx="66.409938"
     inkscape:cy="136.48027"
     inkscape:window-width="1920"
     inkscape:window-height="1009"
     inkscape:window-x="0"
     inkscape:window-y="0"
     inkscape:window-maximized="1"
     inkscape:current-layer="layer1" />
  <defs
     id="defs1" />
  <g
     inkscape:label="Layer 1"
     inkscape:groupmode="layer"
     id="layer1">
    <path
       d="m 16.933333,15.345833 v 46.566666 h 4.233333 v 4.233333 h 25.4 v -4.233333 h 4.233333 V 15.345833 Z M 25.4,20.6375 a 2.1166664,2.1166664 0 0 1 2.116666,2.116666 v 33.866667 h 0.0052 a 2.1166664,2.1166667 0 0 1 -2.116667,2.116666 2.1166664,2.1166667 0 0 1 -2.116666,-2.116666 h 0.0057 V 22.754166 h -0.01085 A 2.1166664,2.1166664 0 0 1 25.4,20.6375 Z m 8.466666,0 a 2.1166664,2.1166664 0 0 1 2.116667,2.116666 v 33.866667 h 0.0052 a 2.1166664,2.1166667 0 0 1 -2.116667,2.116666 2.1166664,2.1166667 0 0 1 -2.116667,-2.116666 h 0.0052 V 22.754166 H 31.75 A 2.1166664,2.1166664 0 0 1 33.866666,20.6375 Z m 8.466667,0 a 2.1166664,2.1166664 0 0 1 2.116666,2.116666 v 33.866667 h 0.0052 A 2.1166664,2.1166667 0 0 1 42.3385,58.737499 2.1166664,2.1166667 0 0 1 40.221834,56.620833 h 0.0052 V 22.754166 h -0.01034 A 2.1166664,2.1166664 0 0 1 42.333333,20.6375 Z"
       style="fill:#404040;stroke-width:0.264583"
       id="path19" />
    <rect
       style="fill:#404040;fill-opacity:1;fill-rule:nonzero;stroke:none;stroke-width:0.264583;stroke-dasharray:none;stroke-opacity:1"
       id="rect7"
       width="50.799999"
       height="4.2333331"
       x="8.4666662"
       y="8.9958344" />
    <path
       d="M 8.4666662,8.9958343 A 2.1166666,2.1166664 0 0 0 6.3499996,11.112502 2.1166666,2.1166664 0 0 0 8.4666662,13.229168 Z"
       style="fill:#404040;stroke-width:0.264583"
       id="path8" />
    <path
       d="m 59.266666,8.9958341 a 2.1166667,2.1166664 0 0 1 2.116667,2.1166679 2.1166667,2.1166664 0 0 1 -2.116667,2.116666 z"
       style="fill:#404040;stroke-width:0.264583"
       id="path8-5" />
    <rect
       style="fill:#404040;fill-opacity:1;fill-rule:nonzero;stroke:none;stroke-width:0.264583;stroke-dasharray:none;stroke-opacity:1"
       id="rect8"
       width="8.4666662"
       height="4.2333331"
       x="26.19375"
       y="3.4395859" />
    <path
       d="m 26.362583,2.2255256 a 4.2333331,4.2333331 0 0 1 4.233334,-4.2333333 4.2333331,4.2333331 0 0 1 4.233333,4.2333333 z"
       style="fill:#404040;stroke-width:0.264583"
       id="path8-5-2" />
    <path
       d="m 21.166666,66.145832 v -4.233333 h -4.233333 a 4.2333331,4.2333331 0 0 0 4.233333,4.233333 z"
       style="fill:#404040;stroke-width:0.264583"
       id="path16" />
    <path
       d="m 50.799999,61.912499 h -4.233333 v 4.233333 a 4.2333331,4.2333331 0 0 0 4.233333,-4.233333 z"
       style="fill:#404040;stroke-width:0.264583"
       id="path18" />
  </g>
</svg>
